<?xml version="1.0" encoding="UTF-8"?>
<!-- Generated by Pixelmator Pro 3.8 -->
<svg width="512" height="512" viewBox="0 0 512 512" xmlns="http://www.w3.org/2000/svg">
    <clipPath id="clipPath1">
        <path clip-rule="evenodd" d="M 0 404 C -0 463.646751 48.353249 512 108 512 L 404 512 C 463.646759 512 512 463.646751 512 404 L 512 108 C 512 48.353241 463.646759 0 404 0 L 108 0 C 48.353249 0 0 48.353241 0 108 Z"/>
    </clipPath>
    <g id="Group" clip-path="url(#clipPath1)">
        <linearGradient id="linearGradient1" x1="76" y1="42" x2="436" y2="470" gradientUnits="userSpaceOnUse">
            <stop offset="1e-05" stop-color="#3c3c3e" stop-opacity="1"/>
            <stop offset="1" stop-color="#0d0d0d" stop-opacity="1"/>
        </linearGradient>
        <path id="Path" fill="url(#linearGradient1)" stroke="none" d="M 108 0 L 404 0 C 463.646759 0 512 48.353241 512 108 L 512 404 C 512 463.646759 463.646759 512 404 512 L 108 512 C 48.353249 512 0 463.646759 0 404 L 0 108 C 0 48.353241 48.353249 0 108 0 Z"/>
        <path id="path1" fill="#ffffff" stroke="none" opacity="0.045" d="M 492 111.5 C 492 271.386414 359.028564 401 195 401 C 30.97143 401 -102 271.386414 -102 111.5 C -102 -48.386414 30.97143 -178 195 -178 C 359.028564 -178 492 -48.386414 492 111.5 Z"/>
        <g id="g1">
            <filter id="filter1" x="0" y="0" width="512" height="512" filterUnits="userSpaceOnUse" primitiveUnits="userSpaceOnUse" color-interpolation-filters="sRGB">
                <feGaussianBlur stdDeviation="16"/>
                <feOffset dx="0" dy="16" result="offsetblur"/>
                <feFlood flood-color="#000000" flood-opacity="0.5"/>
                <feComposite in2="offsetblur" operator="in"/>
                <feMerge>
                    <feMergeNode/>
                    <feMergeNode in="SourceGraphic"/>
                </feMerge>
            </filter>
            <path id="path2" fill="none" stroke="#ffffff" stroke-width="41.307053" stroke-linecap="round" stroke-linejoin="round" filter="url(#filter1)" d="M 119.139801 338.127747 C 88.703026 281.602295 109.356552 230.511993 159.359833 206.597382 C 205.014984 184.856842 213.711212 135.940582 269.149628 117.461121 C 334.371307 95.720551 391.983765 138.114655 403.941071 201.162262 C 421.333496 287.037445 362.634003 370.738586 276.75882 394.653198 C 207.189041 414.219696 150.663605 390.305084 119.139801 338.127747"/>
            <filter id="filter2" x="0" y="0" width="512" height="512" filterUnits="userSpaceOnUse" primitiveUnits="userSpaceOnUse" color-interpolation-filters="sRGB">
                <feGaussianBlur stdDeviation="16"/>
                <feOffset dx="0" dy="12" result="offsetblur"/>
                <feFlood flood-color="#000000" flood-opacity="0.5"/>
                <feComposite in2="offsetblur" operator="in"/>
                <feMerge>
                    <feMergeNode/>
                    <feMergeNode in="SourceGraphic"/>
                </feMerge>
            </filter>
            <path id="path3" fill="none" stroke="#ffffff" stroke-width="33.697861" stroke-linecap="round" stroke-linejoin="round" filter="url(#filter2)" d="M 292 173 C 320.181824 180.457642 342 200.966095 352 228"/>
        </g>
    </g>
</svg>
